<?xml version="1.0" encoding="UTF-8" standalone="no"?><!DOCTYPE svg PUBLIC "-//W3C//DTD SVG 1.1//EN" "http://www.w3.org/Graphics/SVG/1.1/DTD/svg11.dtd"><svg width="100%" height="100%" viewBox="0 0 3544 3544" version="1.1" xmlns="http://www.w3.org/2000/svg" xmlns:xlink="http://www.w3.org/1999/xlink" xml:space="preserve" xmlns:serif="http://www.serif.com/" style="fill-rule:evenodd;clip-rule:evenodd;stroke-linejoin:round;stroke-miterlimit:2;"><g id="Layer3"><rect x="-16" y="-19" width="3587" height="3592" style="fill:#3a57eb;"/></g><g id="Layer2"><path d="M1611.564,2279.273c-20.404,-0 -38.532,13.019 -45.051,32.354c-114.963,337.618 -320.289,651.717 -667.71,876.689c-11.328,7.317 -25.231,9.477 -38.245,5.942c-13.014,-3.535 -23.913,-12.433 -29.982,-24.475c-24.998,-49.567 -64.125,-127.209 -87.748,-174.086c-10.985,-21.8 -3.675,-48.378 16.915,-61.493c86.83,-55.363 308.005,-224.454 464.522,-588.635c6.307,-14.682 4.811,-31.551 -3.98,-44.895c-8.791,-13.344 -23.7,-21.375 -39.68,-21.375c-101.298,-0.025 -285.249,-0.025 -371.881,-0.025c-12.609,0 -24.701,-5.009 -33.617,-13.925c-8.916,-8.916 -13.925,-21.008 -13.925,-33.617l0,-199.32c-0,-26.257 21.285,-47.542 47.542,-47.542l490.236,0c22.643,0 42.145,-15.97 46.609,-38.169c71.122,-361.68 74.258,-841.781 -68.988,-1472.351c-5.637,-24.704 9.094,-49.488 33.489,-56.34c50.572,-14.212 133.474,-37.499 184.778,-51.91c25.129,-7.059 51.25,7.462 58.519,32.531c49.098,177.998 214.41,852.98 106.437,1531.099c-2.227,13.754 1.692,27.792 10.723,38.402c9.03,10.61 22.261,16.724 36.194,16.724c97.903,0.014 297.77,0.014 389.181,0.014c26.257,-0 47.542,-21.285 47.542,-47.542c-0,-192.285 -0,-911.276 -0,-1103.56c-0,-12.609 5.009,-24.701 13.925,-33.617c8.916,-8.916 21.008,-13.925 33.617,-13.925l199.32,0c12.609,-0 24.701,5.009 33.617,13.925c8.916,8.916 13.925,21.008 13.925,33.617l0,1103.56c-0,12.609 5.009,24.701 13.925,33.617c8.916,8.916 21.008,13.925 33.617,13.925c61.293,-0 167.262,-0 228.555,-0c12.609,-0 24.701,5.009 33.617,13.925c8.916,8.916 13.925,21.008 13.925,33.617l0,199.32c0,12.609 -5.009,24.701 -13.925,33.617c-8.916,8.916 -21.008,13.925 -33.617,13.925l-228.555,0c-12.609,-0 -24.701,5.009 -33.617,13.925c-8.916,8.916 -13.925,21.008 -13.925,33.617l-0,323.954c0,12.609 -5.009,24.701 -13.925,33.617c-8.916,8.916 -21.008,13.925 -33.617,13.925c-54.841,-0 -144.478,-0 -199.32,-0c-12.609,0 -24.701,-5.009 -33.617,-13.925c-8.916,-8.916 -13.925,-21.008 -13.925,-33.617c-0,-80.64 -0,-243.314 -0,-323.954c0,-12.609 -5.009,-24.701 -13.925,-33.617c-8.916,-8.916 -21.008,-13.925 -33.617,-13.925l-484.339,0Z" style="fill:#ebebeb;"/></g></svg>

